# xmcd
#
# Track frame offsets:
#	150
#	10985
#	26893
#	41605
#	55935
#	70018
#	90148
#	104235
#	118543
#	133743
#	149745
#	161683
#	175643
#	187163
#	200583
#	217658
#	232878
#	249040
#
# Disc length: 3365
#
# Revision: 1
# Processed by: cddbd v1.5.1PL0 Copyright (c) Steve Scherf et al.
# Submitted via: ExactAudioCopy v0.90b4
# Normalized: r0:DSETVAR1,TDELIM( - )
#
DISCID=f90d2312
DTITLE=Various Artist - Church Street Station - Vol. 4 -
DYEAR=1900
DGENRE=Country
TTITLE0=Danny Davis and Nashville Brass - Trailer - It´s Country Time
TTITLE1=Jonny Rodriguez - How Could I Love Her So Much
TTITLE2=Nitty Gritty Dirt Band - Home Again In My Heart
TTITLE3=Tammy Wynette - Crying In The Rain
TTITLE4=George Jones - Who`s Fill Their Shoes
TTITLE5=Barbara Fairchild - Tip Of My Fingers
TTITLE6=Freddy Fender - Mexican Rose
TTITLE7=Dottie West - What Are We Doin´ In Love
TTITLE8=Mell Tellis - Detroit City
TTITLE9=Bellamy Brothers - Redneck Girl
TTITLE10=Johnny Tillotson - Tell Me Baby
TTITLE11=Dennis Price - Long Hard Fall
TTITLE12=Curtis Young - Who Do You Know In California
TTITLE13=Eddy Raven - I Don´t Like Planes
TTITLE14=Tex Williams - Deck Of Cards
TTITLE15=Mel McDaniel - I Wish I Was In Nashville
TTITLE16=Nitty Gritty Dirt Band - Dance Little Jean
TTITLE17=Danny Davis and Nashville Brass - Trailer - It´s Country Time
EXTD=
EXTT0=
EXTT1=
EXTT2=
EXTT3=
EXTT4=
EXTT5=
EXTT6=
EXTT7=
EXTT8=
EXTT9=
EXTT10=
EXTT11=
EXTT12=
EXTT13=
EXTT14=
EXTT15=
EXTT16=
EXTT17=
PLAYORDER=
